<svg width="1398" height="1027" xmlns="http://www.w3.org/2000/svg" xmlns:xlink="http://www.w3.org/1999/xlink">
  <defs>
    <filter x="-16.3%" y="-23.3%" width="132.5%" height="189.1%" filterUnits="objectBoundingBox" id="a">
      <feMorphology radius="17.5" in="SourceAlpha" result="shadowSpreadOuter1"/>
      <feOffset dy="43" in="shadowSpreadOuter1" result="shadowOffsetOuter1"/>
      <feGaussianBlur stdDeviation="43" in="shadowOffsetOuter1" result="shadowBlurOuter1"/>
      <feComposite in="shadowBlurOuter1" in2="SourceAlpha" operator="out" result="shadowBlurOuter1"/>
      <feColorMatrix values="0 0 0 0 0 0 0 0 0 0 0 0 0 0 0 0 0 0 0.15 0" in="shadowBlurOuter1"/>
    </filter>
    <rect id="b" x="0" y="0" width="553" height="202" rx="101"/>
  </defs>
  <g fill="none" fill-rule="evenodd">
    <g transform="translate(111.23588 286)">
      <path d="M584.26412 219.5v5c0 53.01934 42.98067 96 96 96h303.5c48.60106 0 88 39.39894 88 88h0" stroke="#3EF1A0" stroke-width="24" opacity=".7" stroke-linecap="round" stroke-linejoin="round"/>
      <path stroke="#0AF" stroke-width="24" opacity=".7" stroke-linecap="round" stroke-linejoin="round" d="M584.26412 219.5v189"/>
      <path d="M583.76412 219.5v5c0 53.01934-42.98067 96-96 96h-303.5c-48.60106 0-88 39.39894-88 88h0" stroke="#A565FD" stroke-width="24" opacity=".7" stroke-linecap="round" stroke-linejoin="round"/>
      <g fill="#3D474D" fill-rule="nonzero">
        <path d="M413.65706 483.52h14.82c3 0 5.63.34 7.89 1.02 2.26.68 4.22 1.59 5.88 2.73 1.66 1.14 3.04 2.45 4.14 3.93 1.1 1.48 1.97 3 2.61 4.56.64 1.56 1.1 3.12 1.38 4.68.28 1.56.42 3 .42 4.32 0 2.72-.5 5.35-1.5 7.89s-2.48 4.8-4.44 6.78c-1.96 1.98-4.39 3.57-7.29 4.77-2.9 1.2-6.25 1.8-10.05 1.8h-13.86v-42.48Zm5.76 37.08h7.26c2.44 0 4.75-.33 6.93-.99 2.18-.66 4.09-1.65 5.73-2.97 1.64-1.32 2.94-2.97 3.9-4.95s1.44-4.29 1.44-6.93c0-1.36-.22-2.95-.66-4.77-.44-1.82-1.27-3.55-2.49-5.19-1.22-1.64-2.91-3.03-5.07-4.17-2.16-1.14-4.96-1.71-8.4-1.71h-8.64v31.68ZM460.8947 513.76c0 1.24.27 2.37.81 3.39s1.25 1.89 2.13 2.61c.88.72 1.9 1.28 3.06 1.68 1.16.4 2.36.6 3.6.6 1.68 0 3.14-.39 4.38-1.17 1.24-.78 2.38-1.81 3.42-3.09l4.08 3.12c-3 3.88-7.2 5.82-12.6 5.82-2.24 0-4.27-.38-6.09-1.14-1.82-.76-3.36-1.81-4.62-3.15-1.26-1.34-2.23-2.92-2.91-4.74-.68-1.82-1.02-3.79-1.02-5.91s.37-4.09 1.11-5.91c.74-1.82 1.76-3.4 3.06-4.74 1.3-1.34 2.85-2.39 4.65-3.15 1.8-.76 3.76-1.14 5.88-1.14 2.52 0 4.65.44 6.39 1.32 1.74.88 3.17 2.03 4.29 3.45 1.12 1.42 1.93 3.02 2.43 4.8.5 1.78.75 3.59.75 5.43v1.92h-22.8Zm17.04-4.32c-.04-1.2-.23-2.3-.57-3.3-.34-1-.85-1.87-1.53-2.61-.68-.74-1.53-1.32-2.55-1.74-1.02-.42-2.21-.63-3.57-.63-1.32 0-2.53.25-3.63.75s-2.03 1.15-2.79 1.95c-.76.8-1.35 1.69-1.77 2.67-.42.98-.63 1.95-.63 2.91h17.04ZM485.87235 497.56h6.24l8.52 21.78 8.16-21.78h5.76l-11.16 28.44h-5.94zM522.49 513.76c0 1.24.27 2.37.81 3.39s1.25 1.89 2.13 2.61c.88.72 1.9 1.28 3.06 1.68 1.16.4 2.36.6 3.6.6 1.68 0 3.14-.39 4.38-1.17 1.24-.78 2.38-1.81 3.42-3.09l4.08 3.12c-3 3.88-7.2 5.82-12.6 5.82-2.24 0-4.27-.38-6.09-1.14-1.82-.76-3.36-1.81-4.62-3.15-1.26-1.34-2.23-2.92-2.91-4.74-.68-1.82-1.02-3.79-1.02-5.91s.37-4.09 1.11-5.91c.74-1.82 1.76-3.4 3.06-4.74 1.3-1.34 2.85-2.39 4.65-3.15 1.8-.76 3.76-1.14 5.88-1.14 2.52 0 4.65.44 6.39 1.32 1.74.88 3.17 2.03 4.29 3.45 1.12 1.42 1.93 3.02 2.43 4.8.5 1.78.75 3.59.75 5.43v1.92h-22.8Zm17.04-4.32c-.04-1.2-.23-2.3-.57-3.3-.34-1-.85-1.87-1.53-2.61-.68-.74-1.53-1.32-2.55-1.74-1.02-.42-2.21-.63-3.57-.63-1.32 0-2.53.25-3.63.75s-2.03 1.15-2.79 1.95c-.76.8-1.35 1.69-1.77 2.67-.42.98-.63 1.95-.63 2.91h17.04ZM551.30765 480.64h5.4V526h-5.4zM568.7853 511.78c0 1.44.22 2.77.66 3.99.44 1.22 1.06 2.26 1.86 3.12.8.86 1.78 1.54 2.94 2.04s2.46.75 3.9.75 2.74-.25 3.9-.75c1.16-.5 2.14-1.18 2.94-2.04.8-.86 1.42-1.9 1.86-3.12.44-1.22.66-2.55.66-3.99 0-1.44-.22-2.77-.66-3.99-.44-1.22-1.06-2.26-1.86-3.12-.8-.86-1.78-1.54-2.94-2.04s-2.46-.75-3.9-.75-2.74.25-3.9.75c-1.16.5-2.14 1.18-2.94 2.04-.8.86-1.42 1.9-1.86 3.12-.44 1.22-.66 2.55-.66 3.99Zm-5.76 0c0-2.08.39-4.02 1.17-5.82.78-1.8 1.85-3.38 3.21-4.74 1.36-1.36 2.96-2.43 4.8-3.21 1.84-.78 3.82-1.17 5.94-1.17 2.12 0 4.1.39 5.94 1.17 1.84.78 3.44 1.85 4.8 3.21 1.36 1.36 2.43 2.94 3.21 4.74.78 1.8 1.17 3.74 1.17 5.82s-.39 4.03-1.17 5.85c-.78 1.82-1.85 3.4-3.21 4.74-1.36 1.34-2.96 2.4-4.8 3.18-1.84.78-3.82 1.17-5.94 1.17-2.12 0-4.1-.39-5.94-1.17-1.84-.78-3.44-1.84-4.8-3.18-1.36-1.34-2.43-2.92-3.21-4.74-.78-1.82-1.17-3.77-1.17-5.85ZM599.16294 497.56h5.4v4.08h.12c1.04-1.52 2.47-2.7 4.29-3.54 1.82-.84 3.69-1.26 5.61-1.26 2.2 0 4.19.38 5.97 1.14 1.78.76 3.3 1.82 4.56 3.18 1.26 1.36 2.23 2.95 2.91 4.77.68 1.82 1.02 3.77 1.02 5.85 0 2.12-.34 4.09-1.02 5.91-.68 1.82-1.65 3.4-2.91 4.74-1.26 1.34-2.78 2.39-4.56 3.15-1.78.76-3.77 1.14-5.97 1.14-2.04 0-3.96-.43-5.76-1.29-1.8-.86-3.18-2.03-4.14-3.51h-.12v21h-5.4v-45.36Zm14.76 4.32c-1.44 0-2.74.25-3.9.75-1.16.5-2.14 1.18-2.94 2.04-.8.86-1.42 1.9-1.86 3.12-.44 1.22-.66 2.55-.66 3.99 0 1.44.22 2.77.66 3.99.44 1.22 1.06 2.26 1.86 3.12.8.86 1.78 1.54 2.94 2.04s2.46.75 3.9.75 2.74-.25 3.9-.75c1.16-.5 2.14-1.18 2.94-2.04.8-.86 1.42-1.9 1.86-3.12.44-1.22.66-2.55.66-3.99 0-1.44-.22-2.77-.66-3.99-.44-1.22-1.06-2.26-1.86-3.12-.8-.86-1.78-1.54-2.94-2.04s-2.46-.75-3.9-.75ZM634.94059 497.56h5.04V502h.12c.12-.4.43-.9.93-1.5s1.14-1.17 1.92-1.71 1.7-1 2.76-1.38c1.06-.38 2.23-.57 3.51-.57 2.12 0 3.9.44 5.34 1.32 1.44.88 2.62 2.2 3.54 3.96.92-1.76 2.22-3.08 3.9-3.96 1.68-.88 3.38-1.32 5.1-1.32 2.2 0 4 .36 5.4 1.08 1.4.72 2.5 1.67 3.3 2.85.8 1.18 1.35 2.52 1.65 4.02.3 1.5.45 3.05.45 4.65V526h-5.4v-15.84c0-1.08-.07-2.12-.21-3.12-.14-1-.43-1.88-.87-2.64-.44-.76-1.06-1.37-1.86-1.83-.8-.46-1.86-.69-3.18-.69-2.6 0-4.46.8-5.58 2.4-1.12 1.6-1.68 3.66-1.68 6.18V526h-5.4v-14.88c0-1.36-.07-2.6-.21-3.72-.14-1.12-.42-2.09-.84-2.91-.42-.82-1.02-1.46-1.8-1.92-.78-.46-1.83-.69-3.15-.69-.96 0-1.89.19-2.79.57-.9.38-1.69.95-2.37 1.71-.68.76-1.22 1.73-1.62 2.91-.4 1.18-.6 2.57-.6 4.17V526h-5.4v-28.44ZM689.25824 513.76c0 1.24.27 2.37.81 3.39s1.25 1.89 2.13 2.61c.88.72 1.9 1.28 3.06 1.68 1.16.4 2.36.6 3.6.6 1.68 0 3.14-.39 4.38-1.17 1.24-.78 2.38-1.81 3.42-3.09l4.08 3.12c-3 3.88-7.2 5.82-12.6 5.82-2.24 0-4.27-.38-6.09-1.14-1.82-.76-3.36-1.81-4.62-3.15-1.26-1.34-2.23-2.92-2.91-4.74-.68-1.82-1.02-3.79-1.02-5.91s.37-4.09 1.11-5.91c.74-1.82 1.76-3.4 3.06-4.74 1.3-1.34 2.85-2.39 4.65-3.15 1.8-.76 3.76-1.14 5.88-1.14 2.52 0 4.65.44 6.39 1.32 1.74.88 3.17 2.03 4.29 3.45 1.12 1.42 1.93 3.02 2.43 4.8.5 1.78.75 3.59.75 5.43v1.92h-22.8Zm17.04-4.32c-.04-1.2-.23-2.3-.57-3.3-.34-1-.85-1.87-1.53-2.61-.68-.74-1.53-1.32-2.55-1.74-1.02-.42-2.21-.63-3.57-.63-1.32 0-2.53.25-3.63.75s-2.03 1.15-2.79 1.95c-.76.8-1.35 1.69-1.77 2.67-.42.98-.63 1.95-.63 2.91h17.04ZM717.65588 497.56h5.4v4.38h.12c.68-1.52 1.86-2.75 3.54-3.69s3.62-1.41 5.82-1.41c1.36 0 2.67.21 3.93.63 1.26.42 2.36 1.07 3.3 1.95.94.88 1.69 2.01 2.25 3.39.56 1.38.84 3.01.84 4.89V526h-5.4v-16.8c0-1.32-.18-2.45-.54-3.39-.36-.94-.84-1.7-1.44-2.28-.6-.58-1.29-1-2.07-1.26-.78-.26-1.59-.39-2.43-.39-1.12 0-2.16.18-3.12.54-.96.36-1.8.93-2.52 1.71-.72.78-1.28 1.77-1.68 2.97-.4 1.2-.6 2.62-.6 4.26V526h-5.4v-28.44ZM765.37353 502.24h-7.74v12.9c0 .8.02 1.59.06 2.37.04.78.19 1.48.45 2.1.26.62.66 1.12 1.2 1.5.54.38 1.33.57 2.37.57.64 0 1.3-.06 1.98-.18.68-.12 1.3-.34 1.86-.66v4.92c-.64.36-1.47.61-2.49.75-1.02.14-1.81.21-2.37.21-2.08 0-3.69-.29-4.83-.87-1.14-.58-1.98-1.33-2.52-2.25-.54-.92-.86-1.95-.96-3.09-.1-1.14-.15-2.29-.15-3.45v-14.82h-6.24v-4.68h6.24v-7.98h5.4v7.98h7.74v4.68Z"/>
      </g>
      <g fill="#3D474D" fill-rule="nonzero">
        <path d="M4.74 517.12c1.04 1.56 2.37 2.71 3.99 3.45 1.62.74 3.29 1.11 5.01 1.11.96 0 1.94-.15 2.94-.45 1-.3 1.91-.75 2.73-1.35.82-.6 1.49-1.34 2.01-2.22.52-.88.78-1.9.78-3.06 0-1.64-.52-2.89-1.56-3.75-1.04-.86-2.33-1.58-3.87-2.16-1.54-.58-3.22-1.14-5.04-1.68-1.82-.54-3.5-1.29-5.04-2.25s-2.83-2.25-3.87-3.87-1.56-3.81-1.56-6.57c0-1.24.27-2.56.81-3.96s1.39-2.68 2.55-3.84c1.16-1.16 2.65-2.13 4.47-2.91 1.82-.78 4.01-1.17 6.57-1.17 2.32 0 4.54.32 6.66.96 2.12.64 3.98 1.94 5.58 3.9l-4.68 4.26c-.72-1.12-1.74-2.02-3.06-2.7-1.32-.68-2.82-1.02-4.5-1.02-1.6 0-2.93.21-3.99.63-1.06.42-1.91.96-2.55 1.62-.64.66-1.09 1.37-1.35 2.13-.26.76-.39 1.46-.39 2.1 0 1.8.52 3.18 1.56 4.14 1.04.96 2.33 1.74 3.87 2.34 1.54.6 3.22 1.14 5.04 1.62 1.82.48 3.5 1.15 5.04 2.01 1.54.86 2.83 2.02 3.87 3.48s1.56 3.47 1.56 6.03c0 2.04-.39 3.88-1.17 5.52-.78 1.64-1.83 3.02-3.15 4.14-1.32 1.12-2.88 1.98-4.68 2.58-1.8.6-3.72.9-5.76.9-2.72 0-5.3-.48-7.74-1.44-2.44-.96-4.38-2.44-5.82-4.44l4.74-4.08ZM34.69765 501.04c1.52-1.4 3.28-2.45 5.28-3.15 2-.7 4-1.05 6-1.05 2.08 0 3.87.26 5.37.78s2.73 1.22 3.69 2.1c.96.88 1.67 1.89 2.13 3.03.46 1.14.69 2.33.69 3.57v14.52c0 1 .02 1.92.06 2.76.04.84.1 1.64.18 2.4h-4.8c-.12-1.44-.18-2.88-.18-4.32h-.12c-1.2 1.84-2.62 3.14-4.26 3.9-1.64.76-3.54 1.14-5.7 1.14-1.32 0-2.58-.18-3.78-.54-1.2-.36-2.25-.9-3.15-1.62-.9-.72-1.61-1.61-2.13-2.67-.52-1.06-.78-2.29-.78-3.69 0-1.84.41-3.38 1.23-4.62.82-1.24 1.94-2.25 3.36-3.03 1.42-.78 3.08-1.34 4.98-1.68 1.9-.34 3.93-.51 6.09-.51h3.96v-1.2c0-.72-.14-1.44-.42-2.16-.28-.72-.7-1.37-1.26-1.95-.56-.58-1.26-1.04-2.1-1.38-.84-.34-1.84-.51-3-.51-1.04 0-1.95.1-2.73.3-.78.2-1.49.45-2.13.75-.64.3-1.22.65-1.74 1.05s-1.02.78-1.5 1.14l-3.24-3.36Zm15.24 11.28c-1.28 0-2.59.07-3.93.21-1.34.14-2.56.41-3.66.81-1.1.4-2 .96-2.7 1.68-.7.72-1.05 1.64-1.05 2.76 0 1.64.55 2.82 1.65 3.54 1.1.72 2.59 1.08 4.47 1.08 1.48 0 2.74-.25 3.78-.75 1.04-.5 1.88-1.15 2.52-1.95.64-.8 1.1-1.69 1.38-2.67.28-.98.42-1.95.42-2.91v-1.8h-2.88ZM65.25529 480.64h5.4V526h-5.4zM82.43294 513.76c0 1.24.27 2.37.81 3.39s1.25 1.89 2.13 2.61c.88.72 1.9 1.28 3.06 1.68 1.16.4 2.36.6 3.6.6 1.68 0 3.14-.39 4.38-1.17 1.24-.78 2.38-1.81 3.42-3.09l4.08 3.12c-3 3.88-7.2 5.82-12.6 5.82-2.24 0-4.27-.38-6.09-1.14-1.82-.76-3.36-1.81-4.62-3.15-1.26-1.34-2.23-2.92-2.91-4.74-.68-1.82-1.02-3.79-1.02-5.91s.37-4.09 1.11-5.91c.74-1.82 1.76-3.4 3.06-4.74 1.3-1.34 2.85-2.39 4.65-3.15 1.8-.76 3.76-1.14 5.88-1.14 2.52 0 4.65.44 6.39 1.32 1.74.88 3.17 2.03 4.29 3.45 1.12 1.42 1.93 3.02 2.43 4.8.5 1.78.75 3.59.75 5.43v1.92h-22.8Zm17.04-4.32c-.04-1.2-.23-2.3-.57-3.3-.34-1-.85-1.87-1.53-2.61-.68-.74-1.53-1.32-2.55-1.74-1.02-.42-2.21-.63-3.57-.63-1.32 0-2.53.25-3.63.75s-2.03 1.15-2.79 1.95c-.76.8-1.35 1.69-1.77 2.67-.42.98-.63 1.95-.63 2.91h17.04ZM125.95059 504.7c-.64-.8-1.43-1.47-2.37-2.01-.94-.54-2.09-.81-3.45-.81-1.28 0-2.39.27-3.33.81s-1.41 1.33-1.41 2.37c0 .84.27 1.52.81 2.04s1.18.94 1.92 1.26c.74.32 1.53.56 2.37.72.84.16 1.56.3 2.16.42 1.16.28 2.25.62 3.27 1.02s1.9.92 2.64 1.56c.74.64 1.32 1.42 1.74 2.34.42.92.63 2.04.63 3.36 0 1.6-.34 2.97-1.02 4.11-.68 1.14-1.56 2.07-2.64 2.79-1.08.72-2.31 1.24-3.69 1.56-1.38.32-2.77.48-4.17.48-2.36 0-4.43-.36-6.21-1.08-1.78-.72-3.37-2.04-4.77-3.96l4.08-3.36c.88.88 1.86 1.66 2.94 2.34 1.08.68 2.4 1.02 3.96 1.02.68 0 1.37-.07 2.07-.21.7-.14 1.32-.36 1.86-.66.54-.3.98-.68 1.32-1.14.34-.46.51-.99.51-1.59 0-.8-.25-1.46-.75-1.98s-1.1-.93-1.8-1.23c-.7-.3-1.44-.54-2.22-.72-.78-.18-1.47-.33-2.07-.45-1.16-.28-2.26-.6-3.3-.96s-1.96-.84-2.76-1.44c-.8-.6-1.44-1.36-1.92-2.28-.48-.92-.72-2.06-.72-3.42 0-1.48.31-2.77.93-3.87.62-1.1 1.44-2.01 2.46-2.73 1.02-.72 2.18-1.26 3.48-1.62 1.3-.36 2.61-.54 3.93-.54 1.92 0 3.76.36 5.52 1.08 1.76.72 3.16 1.92 4.2 3.6l-4.2 3.18Z"/>
      </g>
      <g transform="translate(153.76412 473)">
        <rect fill="#8A9499" opacity=".5" width="126" height="71" rx="35.5"/>
        <g fill="#FFF">
          <path d="m81.888 41.936 8.8-8.512c.256-.256.52267-.528.8-.816.27733-.288.528-.592.752-.912.224-.32.41067-.656.56-1.008.14933-.352.224-.72.224-1.104 0-.46933-.09067-.88533-.272-1.248-.18133-.36267-.42133-.672-.72-.928s-.64533-.45333-1.04-.592c-.39467-.13867-.816-.208-1.264-.208-.96 0-1.74933.27733-2.368.832-.61867.55467-.992 1.30133-1.12 2.24l-4.032-.32c.08533-1.04533.336-1.968.752-2.768.416-.8.95467-1.46667 1.616-2 .66133-.53333 1.42933-.93867 2.304-1.216.87467-.27733 1.824-.416 2.848-.416 1.024 0 1.97867.13333 2.864.4s1.65867.66133 2.32 1.184c.66133.52267 1.184 1.18933 1.568 2 .384.81067.576 1.76.576 2.848 0 1.42933-.32533 2.66133-.976 3.696-.65067 1.03467-1.488 2.02133-2.512 2.96l-7.008 6.496h10.496V46H81.888v-4.064Z" fill-rule="nonzero"/>
          <path d="M53 16.8125c7.73199 0 14 6.26801 14 14v8.5625c0 7.73199-6.26801 14-14 14h-8.5L36.0625 59v-5.625H36c-7.73199 0-14-6.26801-14-14v-8.5625c0-7.73199 6.26801-14 14-14h17Zm-.025 5.625h-16.95c-4.6392 0-8.4 3.7608-8.4 8.4V39.35c0 4.6392 3.7608 8.4 8.4 8.4h16.95c4.6392 0 8.4-3.7608 8.4-8.4v-8.5125c0-4.6392-3.7608-8.4-8.4-8.4ZM47.325 36.5c1.5464 0 2.8 1.2536 2.8 2.8v.025c0 1.5464-1.2536 2.8-2.8 2.8H36.05c-1.5464 0-2.8-1.2536-2.8-2.8V39.3c0-1.5464 1.2536-2.8 2.8-2.8h11.275Zm5.625-8.4375c1.5464 0 2.8 1.2536 2.8 2.8v.025c0 1.5464-1.2536 2.8-2.8 2.8h-16.9c-1.5464 0-2.8-1.2536-2.8-2.8v-.025c0-1.5464 1.2536-2.8 2.8-2.8h16.9Z"/>
        </g>
      </g>
      <g fill="#3D474D" fill-rule="nonzero">
        <path d="M941.8647 483.52h8.58l13.5 32.16h.24l13.38-32.16h8.58V526h-5.76v-34.92h-.12l-14.34 34.92h-3.84l-14.34-34.92h-.12V526h-5.76zM994.50235 501.04c1.52-1.4 3.28-2.45 5.28-3.15 2-.7 4-1.05 6-1.05 2.08 0 3.87.26 5.37.78s2.73 1.22 3.69 2.1c.96.88 1.67 1.89 2.13 3.03.46 1.14.69 2.33.69 3.57v14.52c0 1 .02 1.92.06 2.76.04.84.1 1.64.18 2.4h-4.8c-.12-1.44-.18-2.88-.18-4.32h-.12c-1.2 1.84-2.62 3.14-4.26 3.9-1.64.76-3.54 1.14-5.7 1.14-1.32 0-2.58-.18-3.78-.54-1.2-.36-2.25-.9-3.15-1.62-.9-.72-1.61-1.61-2.13-2.67-.52-1.06-.78-2.29-.78-3.69 0-1.84.41-3.38 1.23-4.62.82-1.24 1.94-2.25 3.36-3.03 1.42-.78 3.08-1.34 4.98-1.68 1.9-.34 3.93-.51 6.09-.51h3.96v-1.2c0-.72-.14-1.44-.42-2.16-.28-.72-.7-1.37-1.26-1.95-.56-.58-1.26-1.04-2.1-1.38-.84-.34-1.84-.51-3-.51-1.04 0-1.95.1-2.73.3-.78.2-1.49.45-2.13.75-.64.3-1.22.65-1.74 1.05s-1.02.78-1.5 1.14l-3.24-3.36Zm15.24 11.28c-1.28 0-2.59.07-3.93.21-1.34.14-2.56.41-3.66.81-1.1.4-2 .96-2.7 1.68-.7.72-1.05 1.64-1.05 2.76 0 1.64.55 2.82 1.65 3.54 1.1.72 2.59 1.08 4.47 1.08 1.48 0 2.74-.25 3.78-.75 1.04-.5 1.88-1.15 2.52-1.95.64-.8 1.1-1.69 1.38-2.67.28-.98.42-1.95.42-2.91v-1.8h-2.88ZM1024.64 497.56h5.4v4.38h.12c.36-.76.84-1.45 1.44-2.07.6-.62 1.27-1.15 2.01-1.59.74-.44 1.55-.79 2.43-1.05.88-.26 1.76-.39 2.64-.39.88 0 1.68.12 2.4.36l-.24 5.82c-.44-.12-.88-.22-1.32-.3-.44-.08-.88-.12-1.32-.12-2.64 0-4.66.74-6.06 2.22-1.4 1.48-2.1 3.78-2.1 6.9V526h-5.4v-28.44ZM1045.95765 480.64h5.4v29.28l12.24-12.3h7.5l-13.26 12.9 14.4 15.48h-7.68l-13.2-14.76V526h-5.4zM1080.2953 513.76c0 1.24.27 2.37.81 3.39s1.25 1.89 2.13 2.61c.88.72 1.9 1.28 3.06 1.68 1.16.4 2.36.6 3.6.6 1.68 0 3.14-.39 4.38-1.17 1.24-.78 2.38-1.81 3.42-3.09l4.08 3.12c-3 3.88-7.2 5.82-12.6 5.82-2.24 0-4.27-.38-6.09-1.14-1.82-.76-3.36-1.81-4.62-3.15-1.26-1.34-2.23-2.92-2.91-4.74-.68-1.82-1.02-3.79-1.02-5.91s.37-4.09 1.11-5.91c.74-1.82 1.76-3.4 3.06-4.74 1.3-1.34 2.85-2.39 4.65-3.15 1.8-.76 3.76-1.14 5.88-1.14 2.52 0 4.65.44 6.39 1.32 1.74.88 3.17 2.03 4.29 3.45 1.12 1.42 1.93 3.02 2.43 4.8.5 1.78.75 3.59.75 5.43v1.92h-22.8Zm17.04-4.32c-.04-1.2-.23-2.3-.57-3.3-.34-1-.85-1.87-1.53-2.61-.68-.74-1.53-1.32-2.55-1.74-1.02-.42-2.21-.63-3.57-.63-1.32 0-2.53.25-3.63.75s-2.03 1.15-2.79 1.95c-.76.8-1.35 1.69-1.77 2.67-.42.98-.63 1.95-.63 2.91h17.04ZM1123.93294 502.24h-7.74v12.9c0 .8.02 1.59.06 2.37.04.78.19 1.48.45 2.1.26.62.66 1.12 1.2 1.5.54.38 1.33.57 2.37.57.64 0 1.3-.06 1.98-.18.68-.12 1.3-.34 1.86-.66v4.92c-.64.36-1.47.61-2.49.75-1.02.14-1.81.21-2.37.21-2.08 0-3.69-.29-4.83-.87-1.14-.58-1.98-1.33-2.52-2.25-.54-.92-.86-1.95-.96-3.09-.1-1.14-.15-2.29-.15-3.45v-14.82h-6.24v-4.68h6.24v-7.98h5.4v7.98h7.74v4.68ZM1130.43059 497.56h5.4V526h-5.4v-28.44Zm-1.26-10.2c0-1.08.39-2.01 1.17-2.79.78-.78 1.71-1.17 2.79-1.17s2.01.39 2.79 1.17c.78.78 1.17 1.71 1.17 2.79s-.39 2.01-1.17 2.79c-.78.78-1.71 1.17-2.79 1.17s-2.01-.39-2.79-1.17c-.78-.78-1.17-1.71-1.17-2.79ZM1143.52823 497.56h5.4v4.38h.12c.68-1.52 1.86-2.75 3.54-3.69s3.62-1.41 5.82-1.41c1.36 0 2.67.21 3.93.63 1.26.42 2.36 1.07 3.3 1.95.94.88 1.69 2.01 2.25 3.39.56 1.38.84 3.01.84 4.89V526h-5.4v-16.8c0-1.32-.18-2.45-.54-3.39-.36-.94-.84-1.7-1.44-2.28-.6-.58-1.29-1-2.07-1.26-.78-.26-1.59-.39-2.43-.39-1.12 0-2.16.18-3.12.54-.96.36-1.8.93-2.52 1.71-.72.78-1.28 1.77-1.68 2.97-.4 1.2-.6 2.62-.6 4.26V526h-5.4v-28.44ZM1204.50588 525.76c0 2.16-.37 4.13-1.11 5.91-.74 1.78-1.79 3.32-3.15 4.62-1.36 1.3-3 2.31-4.92 3.03-1.92.72-4.04 1.08-6.36 1.08-2.72 0-5.21-.38-7.47-1.14-2.26-.76-4.41-2.08-6.45-3.96l3.66-4.56c1.4 1.52 2.92 2.67 4.56 3.45 1.64.78 3.5 1.17 5.58 1.17 2 0 3.66-.29 4.98-.87 1.32-.58 2.37-1.33 3.15-2.25.78-.92 1.33-1.97 1.65-3.15.32-1.18.48-2.37.48-3.57v-4.2h-.18c-1.04 1.72-2.45 2.99-4.23 3.81-1.78.82-3.65 1.23-5.61 1.23-2.08 0-4.01-.37-5.79-1.11-1.78-.74-3.31-1.76-4.59-3.06-1.28-1.3-2.28-2.84-3-4.62-.72-1.78-1.08-3.71-1.08-5.79s.34-4.03 1.02-5.85c.68-1.82 1.65-3.41 2.91-4.77 1.26-1.36 2.78-2.42 4.56-3.18 1.78-.76 3.77-1.14 5.97-1.14 1.92 0 3.79.42 5.61 1.26 1.82.84 3.25 2.02 4.29 3.54h.12v-4.08h5.4v28.2Zm-14.76-23.88c-1.44 0-2.74.25-3.9.75-1.16.5-2.14 1.18-2.94 2.04-.8.86-1.42 1.9-1.86 3.12-.44 1.22-.66 2.55-.66 3.99 0 2.88.84 5.19 2.52 6.93 1.68 1.74 3.96 2.61 6.84 2.61s5.16-.87 6.84-2.61c1.68-1.74 2.52-4.05 2.52-6.93 0-1.44-.22-2.77-.66-3.99-.44-1.22-1.06-2.26-1.86-3.12-.8-.86-1.78-1.54-2.94-2.04s-2.46-.75-3.9-.75Z"/>
      </g>
      <g fill="#3D474D" fill-rule="nonzero">
        <path d="M412.11588 65.52h11.52l11.34 29.76 11.46-29.76h11.4V108h-7.2V72.72h-.12l-12.9 35.28h-5.28l-12.9-35.28h-.12V108h-7.2zM462.05353 79.2h7.92l8.04 19.98h.12l7.2-19.98h7.5l-13.62 34.98c-.52 1.36-1.09 2.55-1.71 3.57-.62 1.02-1.35 1.88-2.19 2.58-.84.7-1.83 1.22-2.97 1.56-1.14.34-2.51.51-4.11.51-1.88 0-3.72-.24-5.52-.72l.9-6.48c.56.2 1.15.37 1.77.51.62.14 1.25.21 1.89.21.88 0 1.62-.08 2.22-.24.6-.16 1.11-.41 1.53-.75.42-.34.77-.78 1.05-1.32s.58-1.19.9-1.95l1.38-3.42-12.3-29.04ZM542.90882 75.48c-1.56-1.68-3.07-2.8-4.53-3.36-1.46-.56-2.93-.84-4.41-.84-2.2 0-4.19.39-5.97 1.17-1.78.78-3.31 1.86-4.59 3.24-1.28 1.38-2.27 2.99-2.97 4.83-.7 1.84-1.05 3.82-1.05 5.94 0 2.28.35 4.38 1.05 6.3.7 1.92 1.69 3.58 2.97 4.98 1.28 1.4 2.81 2.5 4.59 3.3 1.78.8 3.77 1.2 5.97 1.2 1.72 0 3.39-.41 5.01-1.23 1.62-.82 3.13-2.13 4.53-3.93l6.24 4.44c-1.92 2.64-4.26 4.56-7.02 5.76-2.76 1.2-5.7 1.8-8.82 1.8-3.28 0-6.29-.53-9.03-1.59-2.74-1.06-5.1-2.56-7.08-4.5-1.98-1.94-3.53-4.27-4.65-6.99-1.12-2.72-1.68-5.74-1.68-9.06 0-3.4.56-6.49 1.68-9.27 1.12-2.78 2.67-5.15 4.65-7.11 1.98-1.96 4.34-3.47 7.08-4.53s5.75-1.59 9.03-1.59c2.88 0 5.55.51 8.01 1.53s4.75 2.75 6.87 5.19l-5.88 4.32ZM551.86647 93.6c0-2.28.41-4.35 1.23-6.21.82-1.86 1.93-3.45 3.33-4.77 1.4-1.32 3.06-2.34 4.98-3.06 1.92-.72 3.96-1.08 6.12-1.08s4.2.36 6.12 1.08c1.92.72 3.58 1.74 4.98 3.06 1.4 1.32 2.51 2.91 3.33 4.77.82 1.86 1.23 3.93 1.23 6.21s-.41 4.35-1.23 6.21c-.82 1.86-1.93 3.45-3.33 4.77-1.4 1.32-3.06 2.34-4.98 3.06-1.92.72-3.96 1.08-6.12 1.08s-4.2-.36-6.12-1.08c-1.92-.72-3.58-1.74-4.98-3.06-1.4-1.32-2.51-2.91-3.33-4.77-.82-1.86-1.23-3.93-1.23-6.21Zm7.2 0c0 1.12.19 2.2.57 3.24.38 1.04.94 1.96 1.68 2.76.74.8 1.63 1.44 2.67 1.92s2.22.72 3.54.72c1.32 0 2.5-.24 3.54-.72s1.93-1.12 2.67-1.92c.74-.8 1.3-1.72 1.68-2.76.38-1.04.57-2.12.57-3.24s-.19-2.2-.57-3.24c-.38-1.04-.94-1.96-1.68-2.76-.74-.8-1.63-1.44-2.67-1.92s-2.22-.72-3.54-.72c-1.32 0-2.5.24-3.54.72s-1.93 1.12-2.67 1.92c-.74.8-1.3 1.72-1.68 2.76-.38 1.04-.57 2.12-.57 3.24ZM588.72412 79.2h6.84v4.5h.12c.64-1.36 1.67-2.57 3.09-3.63s3.33-1.59 5.73-1.59c4.52 0 7.52 1.78 9 5.34 1.04-1.84 2.34-3.19 3.9-4.05 1.56-.86 3.42-1.29 5.58-1.29 1.92 0 3.54.32 4.86.96 1.32.64 2.39 1.52 3.21 2.64.82 1.12 1.41 2.43 1.77 3.93.36 1.5.54 3.11.54 4.83V108h-7.2V91.68c0-.88-.08-1.73-.24-2.55-.16-.82-.44-1.54-.84-2.16-.4-.62-.94-1.11-1.62-1.47-.68-.36-1.56-.54-2.64-.54-1.12 0-2.07.21-2.85.63-.78.42-1.42.98-1.92 1.68s-.86 1.5-1.08 2.4c-.22.9-.33 1.81-.33 2.73V108h-7.2V90.84c0-1.8-.38-3.23-1.14-4.29-.76-1.06-2.02-1.59-3.78-1.59-1.2 0-2.21.2-3.03.6-.82.4-1.5.94-2.04 1.62-.54.68-.93 1.46-1.17 2.34-.24.88-.36 1.8-.36 2.76V108h-7.2V79.2ZM640.34176 79.2h6.84v4.32h.12c1.04-1.76 2.44-3.04 4.2-3.84 1.76-.8 3.66-1.2 5.7-1.2 2.2 0 4.18.39 5.94 1.17 1.76.78 3.26 1.85 4.5 3.21 1.24 1.36 2.18 2.96 2.82 4.8.64 1.84.96 3.82.96 5.94 0 2.12-.34 4.1-1.02 5.94-.68 1.84-1.63 3.44-2.85 4.8-1.22 1.36-2.69 2.43-4.41 3.21-1.72.78-3.6 1.17-5.64 1.17-1.36 0-2.56-.14-3.6-.42-1.04-.28-1.96-.64-2.76-1.08-.8-.44-1.48-.91-2.04-1.41-.56-.5-1.02-.99-1.38-1.47h-.18v17.34h-7.2V79.2Zm23.88 14.4c0-1.12-.19-2.2-.57-3.24-.38-1.04-.94-1.96-1.68-2.76-.74-.8-1.63-1.44-2.67-1.92s-2.22-.72-3.54-.72c-1.32 0-2.5.24-3.54.72s-1.93 1.12-2.67 1.92c-.74.8-1.3 1.72-1.68 2.76-.38 1.04-.57 2.12-.57 3.24s.19 2.2.57 3.24c.38 1.04.94 1.96 1.68 2.76.74.8 1.63 1.44 2.67 1.92s2.22.72 3.54.72c1.32 0 2.5-.24 3.54-.72s1.93-1.12 2.67-1.92c.74-.8 1.3-1.72 1.68-2.76.38-1.04.57-2.12.57-3.24ZM695.25941 104.04h-.18c-1.04 1.64-2.36 2.83-3.96 3.57-1.6.74-3.36 1.11-5.28 1.11-1.32 0-2.61-.18-3.87-.54-1.26-.36-2.38-.9-3.36-1.62-.98-.72-1.77-1.62-2.37-2.7-.6-1.08-.9-2.34-.9-3.78 0-1.56.28-2.89.84-3.99.56-1.1 1.31-2.02 2.25-2.76.94-.74 2.03-1.33 3.27-1.77 1.24-.44 2.53-.77 3.87-.99 1.34-.22 2.69-.36 4.05-.42 1.36-.06 2.64-.09 3.84-.09h1.8v-.78c0-1.8-.62-3.15-1.86-4.05-1.24-.9-2.82-1.35-4.74-1.35-1.52 0-2.94.27-4.26.81-1.32.54-2.46 1.27-3.42 2.19l-3.78-3.78c1.6-1.64 3.47-2.82 5.61-3.54 2.14-.72 4.35-1.08 6.63-1.08 2.04 0 3.76.23 5.16.69 1.4.46 2.56 1.05 3.48 1.77.92.72 1.63 1.55 2.13 2.49.5.94.86 1.89 1.08 2.85.22.96.35 1.89.39 2.79.04.9.06 1.69.06 2.37V108h-6.48v-3.96Zm-.42-8.94h-1.5c-1 0-2.12.04-3.36.12-1.24.08-2.41.27-3.51.57-1.1.3-2.03.74-2.79 1.32-.76.58-1.14 1.39-1.14 2.43 0 .68.15 1.25.45 1.71.3.46.69.85 1.17 1.17.48.32 1.02.55 1.62.69.6.14 1.2.21 1.8.21 2.48 0 4.31-.59 5.49-1.77 1.18-1.18 1.77-2.79 1.77-4.83V95.1ZM708.59706 79.2h6.84v4.62h.12c.68-1.44 1.72-2.69 3.12-3.75 1.4-1.06 3.3-1.59 5.7-1.59 1.92 0 3.55.32 4.89.96 1.34.64 2.43 1.48 3.27 2.52.84 1.04 1.44 2.24 1.8 3.6.36 1.36.54 2.78.54 4.26V108h-7.2V93.42c0-.8-.04-1.69-.12-2.67-.08-.98-.29-1.9-.63-2.76-.34-.86-.87-1.58-1.59-2.16-.72-.58-1.7-.87-2.94-.87-1.2 0-2.21.2-3.03.6-.82.4-1.5.94-2.04 1.62-.54.68-.93 1.46-1.17 2.34-.24.88-.36 1.8-.36 2.76V108h-7.2V79.2ZM738.2547 79.2h7.92l8.04 19.98h.12l7.2-19.98h7.5l-13.62 34.98c-.52 1.36-1.09 2.55-1.71 3.57-.62 1.02-1.35 1.88-2.19 2.58-.84.7-1.83 1.22-2.97 1.56-1.14.34-2.51.51-4.11.51-1.88 0-3.72-.24-5.52-.72l.9-6.48c.56.2 1.15.37 1.77.51.62.14 1.25.21 1.89.21.88 0 1.62-.08 2.22-.24.6-.16 1.11-.41 1.53-.75.42-.34.77-.78 1.05-1.32s.58-1.19.9-1.95l1.38-3.42-12.3-29.04Z"/>
      </g>
      <rect stroke="#0AF" stroke-width="10" x="315.76412" width="538" height="176" rx="88"/>
    </g>
    <g transform="translate(654 115)">
      <use fill="#000" filter="url(#a)" xlink:href="#b"/>
      <rect stroke-opacity=".1" stroke="#000" stroke-width="4" fill="#FFF" x="-2" y="-2" width="557" height="206" rx="101"/>
      <rect fill="#8A9499" opacity=".1" x="197" y="22" width="159" height="158" rx="79"/>
      <g>
        <path d="M87.875 65.16667c5.93706 0 10.75 4.81294 10.75 10.75 0 1.19327-.19442 2.34114-.55332 3.41365 3.62475 2.8757 6.51328 6.62285 8.33984 10.91986h6.17696c1.82656-4.297 4.71509-8.04417 8.34088-10.92052-.35994-1.07185-.55436-2.21972-.55436-3.413 0-5.93705 4.81294-10.75 10.75-10.75h7.5c5.93706 0 10.75 4.81295 10.75 10.75 0 5.93707-4.81294 10.75-10.75 10.75h-7.5c-2.78241 0-5.31793-1.05708-7.22686-2.79156-2.45475 2.04761-4.46318 4.6013-5.8605 7.4984C121.5719 93.1332 124 96.78304 124 101c0 4.21656-2.42764 7.86612-5.96148 9.62723 1.3969 2.89695 3.40515 5.4503 5.85957 7.4974 1.90898-1.7342 4.4445-2.7913 7.22691-2.7913h7.5c5.93706 0 10.75 4.81294 10.75 10.75s-4.81294 10.75-10.75 10.75h-7.5c-5.93706 0-10.75-4.81294-10.75-10.75 0-1.19327.19442-2.34114.55332-3.41365-3.62447-2.87547-6.51283-6.62227-8.33942-10.91886h-6.1778c-1.82659 4.29659-4.71495 8.04339-8.34046 10.91952.35994 1.07185.55436 2.21972.55436 3.413 0 5.93705-4.81294 10.75-10.75 10.75h-7.5c-5.93706 0-10.75-4.81295-10.75-10.75 0-5.93707 4.81294-10.75 10.75-10.75h7.5c2.78241 0 5.31793 1.05708 7.22686 2.79156 2.45447-2.04738 4.46272-4.60072 5.86001-7.4974C97.42764 108.86611 95 105.21655 95 101c0-4.21696 2.4281-7.8668 5.96248-9.62773-1.39744-2.89587-3.40587-5.44956-5.86057-7.4969-1.90898 1.7342-4.4445 2.7913-7.22691 2.7913h-7.5c-5.93706 0-10.75-4.81294-10.75-10.75s4.81294-10.75 10.75-10.75ZM138.54167 122.5h-7.33334c-1.97902 0-3.58333 1.60431-3.58333 3.58333 0 1.97902 1.60431 3.58334 3.58333 3.58334h7.33334c1.97902 0 3.58333-1.60432 3.58333-3.58334 0-1.97902-1.60431-3.58333-3.58333-3.58333Zm-50.75 0h-7.33334c-1.97902 0-3.58333 1.60431-3.58333 3.58333 0 1.97902 1.60431 3.58334 3.58333 3.58334h7.33334c1.97902 0 3.58333-1.60432 3.58333-3.58334 0-1.97902-1.60431-3.58333-3.58333-3.58333Zm50.75-50.16667h-7.33334c-1.97902 0-3.58333 1.60432-3.58333 3.58334 0 1.97902 1.60431 3.58333 3.58333 3.58333h7.33334c1.97902 0 3.58333-1.60431 3.58333-3.58333 0-1.97902-1.60431-3.58334-3.58333-3.58334Zm-50.75 0h-7.33334c-1.97902 0-3.58333 1.60432-3.58333 3.58334 0 1.97902 1.60431 3.58333 3.58333 3.58333h7.33334c1.97902 0 3.58333-1.60431 3.58333-3.58333 0-1.97902-1.60431-3.58334-3.58333-3.58334ZM421.875 61.58333c5.93706 0 10.75 4.81294 10.75 10.75s-4.81294 10.75-10.75 10.75h-1.032l.00075 7.16667c0 4.37034 3.51768 7.92852 7.9069 8.0588l.24935.0037 11.21373-.00022C441.40717 93.67584 445.616 90.25 450.625 90.25H469c5.93706 0 10.75 4.81294 10.75 10.75s-4.81294 10.75-10.75 10.75h-18.375c-5.00888 0-9.21765-3.4257-10.4112-8.06198L429 103.6875c-3.06047 0-5.88471-.99975-8.15675-2.68689l.0005 14.33272c0 4.4528 3.65168 8.0625 8.15625 8.0625l11.21373-.00021c1.19344-4.63644 5.40228-8.06229 10.41127-8.06229H469c5.93706 0 10.75 4.81294 10.75 10.75s-4.81294 10.75-10.75 10.75h-18.375c-5.00899 0-9.21783-3.42584-10.41127-8.06228L429 128.77083c-7.50762 0-13.59375-6.01617-13.59375-13.4375v-32.25H414.375c-5.93706 0-10.75-4.81294-10.75-10.75s4.81294-10.75 10.75-10.75ZM468.91667 122.5h-18.20834c-1.97902 0-3.58333 1.60431-3.58333 3.58333 0 1.97902 1.60431 3.58334 3.58333 3.58334h18.20834c1.97902 0 3.58333-1.60432 3.58333-3.58334 0-1.97902-1.60431-3.58333-3.58333-3.58333Zm0-25.08333h-18.20834c-1.97902 0-3.58333 1.60431-3.58333 3.58333 0 1.97902 1.60431 3.58333 3.58333 3.58333h18.20834c1.97902 0 3.58333-1.60431 3.58333-3.58333 0-1.97902-1.60431-3.58333-3.58333-3.58333Z" fill="#3D474D" opacity=".5"/>
        <path d="M280.25 61.58333c5.93706 0 10.75 4.81294 10.75 10.75s-4.81294 10.75-10.75 10.75h-1.032v11.645l13.5945.00084c9.40035 0 17.0413 7.4463 17.2157 16.6974l.00305.32343.00018 3.61082c5.4777.3903 9.8199 4.88915 9.96483 10.43607l.00374.28644c0 5.93706-4.81762 10.75-10.7429 10.75h-3.8892c-5.93314 0-10.7429-4.81163-10.7429-10.75 0-5.67617 4.40353-10.32485 9.96852-10.72243l.00023-3.6109c0-6.43182-5.27465-11.64583-11.78125-11.64583l-13.5945-.00084.00065 15.25747c5.47784.39017 9.82017 4.88908 9.96511 10.43609l.00374.28644c0 5.93706-4.81762 10.75-10.7429 10.75h-3.8892c-5.93314 0-10.7429-4.81163-10.7429-10.75 0-5.67627 4.40367-10.325 9.9688-10.72245l-.0003-15.25755-13.5935.00084c-6.4065 0-11.61866 5.05482-11.77752 11.34986l-.00373.29597.00018 3.61082c5.4777.3903 9.8199 4.88915 9.96483 10.43607l.00374.28644c0 5.93706-4.81762 10.75-10.7429 10.75h-3.8892c-5.93314 0-10.7429-4.81163-10.7429-10.75 0-5.67617 4.40353-10.32485 9.96852-10.72243l.00023-3.6109c0-9.40035 7.7091-17.02083 17.21875-17.02083l13.5935-.00084v-11.645h-1.031c-5.8413 0-10.59445-4.65893-10.74626-10.46361L262 72.33333c0-5.93706 4.81294-10.75 10.75-10.75ZM247.53398 122.5h-3.69296c-1.98638 0-3.59102 1.60431-3.59102 3.58333 0 1.975 1.60775 3.58334 3.59102 3.58334h3.69296c1.98638 0 3.59102-1.60432 3.59102-3.58334l-.00498-.18994c-.09914-1.88714-1.66675-3.39339-3.58604-3.39339Zm30.8125 0h-3.69296c-1.98638 0-3.59102 1.60431-3.59102 3.58333 0 1.975 1.60775 3.58334 3.59102 3.58334h3.69296c1.98638 0 3.59102-1.60432 3.59102-3.58334l-.00498-.18994c-.09914-1.88714-1.66675-3.39339-3.58604-3.39339Zm30.8125 0h-3.69296c-1.98638 0-3.59102 1.60431-3.59102 3.58333 0 1.975 1.60775 3.58334 3.59102 3.58334h3.69296c1.98638 0 3.59102-1.60432 3.59102-3.58334l-.00498-.18994c-.09914-1.88714-1.66675-3.39339-3.58604-3.39339Z" fill="#0AF"/>
      </g>
    </g>
    <path fill="#FFF" d="M964 341.075V261l57.955 58.095H988.05l-2.055.62z"/>
    <path fill="#FFF" d="m1009.4225 344.4465-18.025 7.675-23.41-55.445 18.43-7.765z"/>
    <path fill="#000" d="m1002.755 341.043-9.22 3.87-15.5-36.87 9.205-3.875z"/>
    <path fill="#000" d="M969 273.0355v55.94l14.845-14.33 2.14-.695h23.84z"/>
  </g>
</svg>
